# AST/ASF file generated using VICON BodyLanguage
# -----------------------------------------------
:version 1.10
:name VICON
:units
  mass 1.0
  length 0.45
  angle deg
:documentation
   .ast/.asf automatically generated from VICON data using
   VICON BodyBuilder and BodyLanguage model FoxedUp or BRILLIANT.MOD
:root
   order TX TY TZ RX RY RZ
   axis XYZ
   position 0 0 0  
   orientation 0 0 0 
:bonedata
  begin
     id 1 
     name lhipjoint
     direction 0.522423 -0.726805 0.445902 
     length 2.25074 
     axis 0 0 0  XYZ
  end
  begin
     id 2 
     name lfemur
     direction 0.34202 -0.939693 0  
     length 6.54609  
     axis 0 0 20  XYZ
    dof rx ry rz
    limits (-160.0 20.0)
           (-70.0 70.0)
           (-60.0 70.0)
  end
  begin
     id 3 
     name ltibia
     direction 0.34202 -0.939693 0   
     length 7.7528   
     axis 0 0 20   XYZ
    dof rx
    limits (-10.0 170.0)
  end
  begin
     id 4 
     name lfoot
     direction 0.143696 -0.394801 0.90746   
     length 1.73269   
     axis -90 7.62852e-016 20   XYZ
    dof rx rz
    limits (-45.0 90.0)
           (-70.0 20.0)
  end
  begin
     id 5 
     name ltoes
     direction 1.53633e-011 -4.21912e-011 1   
     length 0.858383   
     axis -90 7.62852e-016 20   XYZ
    dof rx
    limits (-90.0 20.0)
  end
  begin
     id 6 
     name rhipjoint
     direction -0.515943 -0.73016 0.447961   
     length 2.2404  
     axis 0 0 0  XYZ 
  end
  begin
     id 7 
     name rfemur
     direction -0.34202 -0.939693 0   
     length 6.84377   
     axis 0 0 -20   XYZ
    dof rx ry rz
    limits (-160.0 20.0)
           (-70.0 70.0)
           (-70.0 60.0)
  end
  begin
     id 8 
     name rtibia
     direction -0.34202 -0.939693 0   
     length 7.57596   
     axis 0 0 -20   XYZ
    dof rx
    limits (-10.0 170.0)
 end
 begin
     id 9 
     name rfoot
     direction -0.0999372 -0.274575 0.956358   
     length 1.78783  
     axis -90 -7.62852e-016 -20   XYZ
    dof rx rz
    limits (-45.0 90.0)
           (-20.0 70.0)
  end
  begin
     id 10 
     name rtoes
     direction -1.53535e-011 -4.21895e-011 1   
     length 0.898614   
     axis -90 -7.62852e-016 -20   XYZ
    dof rx
    limits (-90.0 20.0)
  end
  begin
     id 11 
     name lowerback
     direction -0.011775 0.996164 -0.0867116   
     length 1.91499   
     axis 0 0 0   XYZ
    dof rx ry rz
    limits (-20.0 45.0)
           (-30.0 30.0)
           (-30.0 30.0)
  end
  begin
     id 12 
     name upperback
     direction -0.00189771 0.999673 -0.0254833   
     length 1.92213   
     axis 0 0 0   XYZ
    dof rx ry rz
    limits (-20.0 45.0)
           (-30.0 30.0)
           (-30.0 30.0)
  end
  begin
     id 13 
     name thorax
     direction 0.00335995 0.999878 0.0152401   
     length 1.93138   
     axis 0 0 0   XYZ
    dof rx ry rz
    limits (-20.0 45.0)
           (-30.0 30.0)
           (-30.0 30.0)
  end
  begin
     id 14 
     name lowerneck
     direction 0.00233191 0.998509 0.0545404   
     length 1.59408   
     axis 0 0 0   XYZ
    dof rx ry rz
    limits (-20.0 45.0)
           (-30.0 30.0)
           (-30.0 30.0)
  end
  begin
     id 15 
     name upperneck
     direction 0.07881 0.9956 -0.0506934   
     length 1.59344   
     axis 0 0 0   XYZ
    dof rx ry rz
    limits (-20.0 45.0)
           (-30.0 30.0)
           (-30.0 30.0)
  end
  begin
     id 16
     name head
     direction 0.0261681 0.999378 -0.0236299  
     length 1.60935  
     axis 0 0 0   XYZ
    dof rx ry rz
    limits (-20.0 45.0)
           (-30.0 30.0)
           (-30.0 30.0)
  end
  begin
     id 17 
     name lclavicle
     direction 0.96643 0.252035 0.0499195  
     length 3.82153  
     axis 0 0 0   XYZ
    dof ry rz
    limits (-20.0 10.0)
           (0.0 20.0)
  end
  begin
     id 18 
     name lhumerus
     direction 1 -4.48967e-011 -2.01614e-018   
     length 4.87796   
     axis 180 -30 -90   XYZ
    dof rx ry rz
    limits (-60.0 90.0)
           (-90.0 90.0)
           (-90.0 90.0)
  end
  begin
     id 19
     name lradius
     direction 1 -4.48958e-011 3.1409e-027   
     length 3.23169   
     axis 180 -30 -90   XYZ
    dof rx
    limits (-10.0 170.0)
  end
  begin
     id 20
     name lwrist
     direction 1 -4.48924e-011 1.0365e-027   
     length 1.61584   
     axis -2.56395e-016 90 90   XYZ
    dof ry
    limits (-180.0 0.0)
 end
  begin
     id 21 
     name lhand
     direction 1 -4.49055e-011 2.09488e-027   
     length 0.731324   
     axis -1.32723e-015 90 90   XYZ
    dof rx rz
    limits (-90.0 90.0)
           (-45.0 45.0)
  end
  begin
     id 22 
     name lfingers
     direction 1 -4.48935e-011 4.14981e-027   
     length 0.589612   
     axis -2.6545e-015 90 90   XYZ
    dof rx
    limits (0.0 90.0)
  end
  begin
     id 23
     name lthumb
     direction 0.707107 -6.35097e-011 0.707107   
     length 0.846569   
     axis -90 45 5.05613e-014   XYZ
    dof rx rz
    limits (-45.0 45.0)
           (-45.0 45.0)
  end
  begin
     id 24 
     name rclavicle
     direction -0.979337 0.201016 0.0221522   
     length 3.73827  
     axis 0 0 0   XYZ 
    dof ry rz
    limits (-10.0 20.0)
           (-20.0 0.0)
  end
  begin
     id 25 
     name rhumerus
     direction -1 -4.48971e-011 1.65907e-027  
     length 4.9143   
     axis 180 30 90   XYZ
    dof rx ry rz
    limits (-90.0 60.0)
           (-90.0 90.0)
           (-90.0 90.0)
  end
  begin
     id 26 
     name rradius
     direction -1 -4.4894e-011 2.17871e-028   
     length 3.29093   
     axis 180 30 90   XYZ
    dof rx
    limits (-10.0 170.0)
  end
  begin
     id 27 
     name rwrist
     direction -1 -4.48971e-011 1.04038e-027   
     length 1.64546   
     axis -2.56395e-016 -90 -90   XYZ
    dof ry
    limits (-180.0 0.0)
  end
  begin
     id 28
     name rhand
     direction -1 -4.49017e-011 2.08843e-027   
     length 0.54512   
     axis -1.32723e-015 -90 -90   XYZ
    dof rx rz
    limits (-90.0 90.0)
           (-45.0 45.0)
  end
  begin
     id 29
     name rfingers
     direction -1 -4.48918e-011 4.1439e-027   
     length 0.43949   
     axis -2.6545e-015 -90 -90   XYZ
    dof rx
    limits (0.0 90.0)
  end
  begin
     id 30
     name rthumb
     direction -0.707107 -6.35065e-011 0.707107   
     length 0.631022   
     axis -90 -45 -5.05613e-014   XYZ
    dof rx rz
    limits (-45.0 45.0)
           (-45.0 45.0)
  end
:hierarchy
  begin
    root lhipjoint rhipjoint lowerback
    lhipjoint lfemur
    lfemur ltibia
    ltibia lfoot
    lfoot ltoes
    rhipjoint rfemur
    rfemur rtibia
    rtibia rfoot
    rfoot rtoes
    lowerback upperback
    upperback thorax
    thorax lowerneck lclavicle rclavicle
    lowerneck upperneck
    upperneck head
    lclavicle lhumerus
    lhumerus lradius
    lradius lwrist
    lwrist lhand lthumb
    lhand lfingers
    rclavicle rhumerus
    rhumerus rradius
    rradius rwrist
    rwrist rhand rthumb
    rhand rfingers
  end

#!OML:ASF H:\BreakDance\Project 1\Capture day 1\Session 1\Male.ASF
:FULLY-SPECIFIED
:DEGREES
1746
root -7.09988 16.2927 -5.98625 -149.398 -104.586 906.096
lowerback 17.4028 1.76361 -0.392555
upperback 9.59551 1.67659 -2.3038
thorax 0.563874 0.682758 -2.48023
lowerneck -4.79682 -6.24379 -3.66326
upperneck 6.07544 -8.65106 8.20719
head 3.44134 -4.0944 2.97224
rclavicle -9.54166e-015 -9.13416e-014
rhumerus 16.6475 6.38822 -81.0242
rradius 31.3201
rwrist 3.24636
rhand -22.7718 -23.7132
rfingers 7.12502
rthumb 3.66351 -53.6615
lclavicle -9.54166e-015 -9.13416e-014
lhumerus -12.6948 -31.0915 81.5574
lradius 44.4642
lwrist -27.7063
lhand -23.4355 -22.5726
lfingers 7.12502
lthumb 3.02257 7.38573
rfemur -71.0283 -12.1513 14.2781
rtibia 59.4926
rfoot -22.7512 -1.76857
rtoes 31.0686
lfemur -67.895 -1.95789 -18.2022
ltibia 45.4488
lfoot -18.9463 -2.72507
ltoes -29.3816
1747
root -7.12286 16.302 -6.00932 -148.534 -104.931 906.403
lowerback 17.7172 1.67652 -0.356187
upperback 9.66148 1.56038 -2.22079
thorax 0.466524 0.622926 -2.40166
lowerneck -4.95732 -6.29431 -3.64436
upperneck 5.7607 -8.71447 8.44988
head 3.38208 -4.12077 3.04536
rclavicle 5.14852e-014 -2.08724e-015
rhumerus 18.0602 6.29639 -80.5377
rradius 31.1099
rwrist 2.76603
rhand -23.1639 -23.7814
rfingers 7.12502
rthumb 3.28478 -53.7358
lclavicle 5.14852e-014 -2.08724e-015
lhumerus -12.3675 -30.9365 81.0418
lradius 45.3284
lwrist -29.7156
lhand -23.4255 -22.6674
lfingers 7.12502
lthumb 3.03222 7.29083
rfemur -71.8923 -11.7871 13.6419
rtibia 57.5153
rfoot -22.9532 -2.88412
rtoes 31.3102
lfemur -68.934 -1.99447 -18.1324
ltibia 45.0306
lfoot -18.6992 -2.93077
ltoes -29.3014
1748
root -7.14821 16.3088 -6.03303 -147.763 -105.296 906.81
lowerback 18.0596 1.59217 -0.297829
upperback 9.71477 1.45137 -2.15029
thorax 0.343314 0.568034 -2.34982
lowerneck -5.11568 -6.35617 -3.59337
upperneck 5.45799 -8.79674 8.70324
head 3.32704 -4.15583 3.11525
rclavicle -3.81667e-014 6.95746e-016
rhumerus 19.4573 6.20221 -80.0034
rradius 30.9123
rwrist 2.26479
rhand -23.4644 -24.0283
rfingers 7.12502
rthumb 2.99466 -53.987
lclavicle -3.81667e-014 6.95746e-016
lhumerus -12.0646 -30.866 80.539
lradius 46.2083
lwrist -31.49
lhand -23.4213 -22.7392
lfingers 7.12502
lthumb 3.03625 7.21896
rfemur -72.7088 -11.4607 12.923
rtibia 55.5524
rfoot -23.0789 -3.91424
rtoes 31.4942
lfemur -69.9571 -2.05801 -18.0724
ltibia 44.5988
lfoot -18.4639 -3.15022
ltoes -28.9731
1749
root -7.17602 16.3141 -6.05748 -147.05 -105.675 907.247
lowerback 18.4626 1.50339 -0.229039
upperback 9.76201 1.3378 -2.07684
thorax 0.183361 0.510944 -2.30039
lowerneck -5.28671 -6.41483 -3.55429
upperneck 5.17668 -8.87665 8.97933
head 3.28425 -4.18916 3.19509
rclavicle 1.90833e-014 -4.97956e-014
rhumerus 20.8398 6.14152 -79.4256
rradius 30.7418
rwrist 1.73702
rhand -23.6752 -24.4368
rfingers 7.12502
rthumb 2.79103 -54.3983
lclavicle 1.90833e-014 -4.97956e-014
lhumerus -11.8041 -30.8038 80.0687
lradius 47.0965
lwrist -33.0414
lhand -23.4238 -22.7899
lfingers 7.12502
lthumb 3.0338 7.1683
rfemur -73.4464 -11.1643 12.1449
rtibia 53.6318
rfoot -23.1343 -4.80378
rtoes 31.6022
lfemur -70.9373 -2.15145 -17.9901
ltibia 44.1654
lfoot -18.2424 -3.37891
ltoes -28.4182
1750
root -7.20594 16.3179 -6.083 -146.43 -106.054 907.746
lowerback 18.9292 1.41778 -0.149267
upperback 9.80134 1.2293 -2.01749
thorax -0.0156933 0.456825 -2.27326
lowerneck -5.46364 -6.47518 -3.51018
upperneck 4.90824 -8.96149 9.27814
head 3.24898 -4.22434 3.28157
rclavicle 1.94809e-014 2.00773e-014
rhumerus 22.1875 6.0495 -78.8418
rradius 30.6048
rwrist 1.1999
rhand -23.7999 -24.9341
rfingers 7.12502
rthumb 2.67061 -54.8971
lclavicle 1.94809e-014 2.00773e-014
lhumerus -11.5942 -30.7672 79.6195
lradius 48.0111
lwrist -34.3612
lhand -23.425 -22.8234
lfingers 7.12502
lthumb 3.03269 7.13483
rfemur -74.1138 -10.8996 11.3088
rtibia 51.7835
rfoot -23.1162 -5.51309
rtoes 31.6594
lfemur -71.8836 -2.27626 -17.8917
ltibia 43.7412
lfoot -18.0196 -3.61217
ltoes -27.6963
1751
root -7.23772 16.3199 -6.10971 -145.878 -106.434 908.284
lowerback 19.4444 1.33594 -0.0624443
upperback 9.83701 1.1271 -1.95641
thorax -0.241965 0.40576 -2.24914
lowerneck -5.63674 -6.53701 -3.49816
upperneck 4.63514 -9.04648 9.59686
head 3.21511 -4.26046 3.38125
rclavicle 1.66979e-014 3.22031e-014
rhumerus 23.5067 5.92096 -78.2351
rradius 30.4997
rwrist 0.643696
rhand -23.8345 -25.45
rfingers 7.12502
rthumb 2.63723 -55.4134
lclavicle 1.66979e-014 3.22031e-014
lhumerus -11.4457 -30.7202 79.2224
lradius 48.9684
lwrist -35.4671
lhand -23.4237 -22.8383
lfingers 7.12502
lthumb 3.03389 7.11988
rfemur -74.7246 -10.6813 10.4548
rtibia 50.0381
rfoot -23.0015 -6.02806
rtoes 31.6067
lfemur -72.8079 -2.42645 -17.7751
ltibia 43.3368
lfoot -17.7874 -3.85172
ltoes -26.8604
1752
root -7.27148 16.3205 -6.13804 -145.316 -106.82 908.793
lowerback 19.9735 1.26363 0.0370138
upperback 9.86651 1.04141 -1.88119
thorax -0.48008 0.362921 -2.21932
lowerneck -5.76333 -6.60385 -3.52443
upperneck 4.32394 -9.13222 9.9226
head 3.16261 -4.30027 3.49207
rclavicle 8.15017e-014 2.68359e-014
rhumerus 24.7855 5.75411 -77.5908
rradius 30.4268
rwrist 0.0385811
rhand -23.8143 -25.9349
rfingers 7.12502
rthumb 2.65672 -55.8981
lclavicle 8.15017e-014 2.68359e-014
lhumerus -11.3712 -30.6553 78.903
lradius 49.9676
lwrist -36.4043
lhand -23.4222 -22.8328
lfingers 7.12502
lthumb 3.03538 7.12538
rfemur -75.2993 -10.5037 9.62936
rtibia 48.4263
rfoot -22.7721 -6.37078
rtoes 31.41
lfemur -73.7292 -2.58274 -17.6306
ltibia 42.9624
lfoot -17.5632 -4.08347
ltoes -26.0833
